<svg width="50" height="24" viewBox="0 0 50 24" fill="none" xmlns="http://www.w3.org/2000/svg">
<path d="M11.3512 8.34759C11.3512 8.50973 11.3458 8.66866 11.3362 8.82119C11.3265 8.97373 11.2934 9.17426 11.2387 9.42386C11.1831 9.67239 11.1103 9.90173 11.0203 10.1108C10.9304 10.3188 10.7966 10.5385 10.621 10.7668C10.4454 10.9961 10.2366 11.1871 9.99464 11.3396C9.75374 11.4921 9.44646 11.6191 9.07494 11.7215C8.70234 11.8228 8.28586 11.874 7.82333 11.874H4.15095C3.88007 11.874 3.65952 11.6511 3.65952 11.3769V9.97639H3.66166C4.22911 9.97639 4.94324 9.97639 5.69164 9.97533H7.9229C8.20877 9.97533 8.42397 9.83239 8.53104 9.57426C8.63703 9.32039 8.58671 9.06973 8.38864 8.86813C7.68736 8.15559 6.97858 7.44093 6.31798 6.77319C6.16594 6.61959 5.97643 6.55666 5.7698 6.59079C5.51819 6.63346 5.34367 6.78173 5.26337 7.02066C5.18093 7.26919 5.23554 7.49959 5.42076 7.68839C5.69164 7.96359 5.96466 8.23879 6.24945 8.52466L6.4047 8.68253H3.65952L3.65845 5.17959C3.65952 4.90546 3.879 4.68359 4.14881 4.68359H7.82119C8.81691 4.68359 9.65417 5.01213 10.3319 5.66813C11.0118 6.32519 11.3512 7.21799 11.3512 8.34759Z" fill="#3C67B1"/>
<path d="M11.3512 15.7899C11.3512 15.952 11.3458 16.111 11.3362 16.2635C11.3265 16.416 11.2934 16.6166 11.2387 16.8662C11.1831 17.1147 11.1103 17.344 11.0203 17.5531C10.9304 17.7611 10.7966 17.9808 10.621 18.2091C10.4454 18.4384 10.2366 18.6294 9.99464 18.7819C9.75374 18.9344 9.44646 19.0614 9.07494 19.1638C8.70234 19.2651 8.28586 19.3163 7.82333 19.3163H4.15095C3.88007 19.3163 3.65952 19.0934 3.65952 18.8192V18.1088L3.65845 12.623C3.65952 12.3488 3.879 12.127 4.14881 12.127H7.82119C8.81691 12.127 9.65417 12.4555 10.3319 13.1115C10.6231 13.3942 10.8533 13.7195 11.0193 14.0886C10.5021 14.0886 9.86187 14.0886 9.18521 14.0896H6.7441C6.45823 14.0896 6.24303 14.2315 6.13489 14.4907C6.02997 14.7446 6.08029 14.9963 6.27729 15.1968C6.97322 15.904 7.68307 16.6219 8.34688 17.2918C8.47215 17.4187 8.62205 17.4838 8.78586 17.4838C8.82226 17.4838 8.85759 17.4806 8.89506 17.4742C9.14667 17.4315 9.32119 17.2832 9.40149 17.0432C9.48393 16.7958 9.42933 16.5654 9.2441 16.3766C8.97322 16.1003 8.7002 15.8262 8.41434 15.5392L8.26016 15.3824H11.3351C11.3458 15.5136 11.3512 15.6502 11.3512 15.7899Z" fill="#3C67B1"/>
<path d="M13.1435 4.68066H15.7794C17.2719 4.68066 18.0118 5.43906 18.0118 6.46413C18.0118 7.3004 17.4807 7.7708 16.8083 7.9276V7.9948C17.5418 8.03213 18.2805 8.64333 18.2805 9.68333C18.2805 10.7543 17.5075 11.5575 15.9304 11.5575H13.1435V4.68066ZM15.6242 7.6044C16.273 7.6044 16.7644 7.22786 16.7644 6.62413C16.7644 6.094 16.3844 5.70786 15.652 5.70786H14.3908V7.60546H15.6242V7.6044ZM15.7323 10.5164C16.637 10.5164 17.0128 10.1335 17.0128 9.58626C17.0128 8.97186 16.5353 8.50146 15.7655 8.50146H14.3908V10.5164H15.7323Z" fill="#F26727"/>
<path d="M20.1499 11.5564H18.9326V4.68066H20.1231V7.27586H20.1831C20.4218 6.69133 20.9261 6.33186 21.7195 6.33186C22.7923 6.33186 23.4979 7.02733 23.4979 8.27213V11.5564H22.2805V8.46093C22.2805 7.76546 21.9036 7.35906 21.2655 7.35906C20.6135 7.35906 20.1488 7.78893 20.1488 8.53453V11.5564H20.1499Z" fill="#F26727"/>
<path d="M24.1146 10.1101C24.1146 8.94847 25.0728 8.64981 26.0749 8.54207C26.9861 8.44501 27.3523 8.42794 27.3523 8.07914V8.05887C27.3523 7.55221 27.0428 7.26314 26.4786 7.26314C25.8833 7.26314 25.5407 7.56501 25.4197 7.91807L24.2837 7.75701C24.5525 6.81727 25.3865 6.33301 26.4722 6.33301C27.4572 6.33301 28.5707 6.74261 28.5707 8.10581V11.5575H27.4004V10.8493H27.3597C27.1381 11.2823 26.6542 11.6621 25.8437 11.6621C24.8576 11.661 24.1146 11.1234 24.1146 10.1101ZM27.3555 9.70687V9.09887C27.197 9.22687 26.5589 9.30687 26.2398 9.35061C25.6949 9.42741 25.288 9.62261 25.288 10.0898C25.288 10.5367 25.651 10.7682 26.1585 10.7682C26.8919 10.7682 27.3555 10.2807 27.3555 9.70687Z" fill="#F26727"/>
<path d="M29.4175 6.39928H30.5974V7.25902H30.651C30.8394 6.66168 31.334 6.32568 31.925 6.32568C32.0599 6.32568 32.2516 6.33955 32.3619 6.35875V7.47768C32.258 7.44462 32.0021 7.40728 31.7966 7.40728C31.1274 7.40728 30.6327 7.87022 30.6327 8.52515V11.5577H29.4154V6.39928H29.4175Z" fill="#F26727"/>
<path d="M32.4539 10.1101C32.4539 8.94847 33.4122 8.64981 34.4143 8.54207C35.3255 8.44501 35.6916 8.42794 35.6916 8.07914V8.05887C35.6916 7.55221 35.3822 7.26314 34.818 7.26314C34.2227 7.26314 33.8801 7.56501 33.7591 7.91807L32.6231 7.75701C32.8919 6.81727 33.7259 6.33301 34.8116 6.33301C35.7966 6.33301 36.9101 6.74261 36.9101 8.10581V11.5575H35.7387V10.8493H35.6981C35.4764 11.2823 34.9925 11.6621 34.182 11.6621C33.197 11.661 32.4539 11.1234 32.4539 10.1101ZM35.6949 9.70687V9.09887C35.5364 9.22687 34.8983 9.30687 34.5792 9.35061C34.0342 9.42741 33.6274 9.62261 33.6274 10.0898C33.6274 10.5367 33.9904 10.7682 34.4978 10.7682C35.2313 10.7682 35.6949 10.2807 35.6949 9.70687Z" fill="#F26727"/>
<path d="M40.3362 7.34006H39.318V10.0057C39.318 10.4963 39.5631 10.603 39.8694 10.603C40.0203 10.603 40.1584 10.5731 40.2259 10.5561L40.4315 11.5065C40.3008 11.5502 40.0621 11.6174 39.7152 11.627C38.8008 11.6537 38.0942 11.1769 38.1017 10.2062V7.34006H37.3683V6.40033H38.1017V5.16406H39.319V6.39926H40.3372V7.34006H40.3362Z" fill="#F26727"/>
<path d="M17.7869 14.783C17.6488 13.999 17.0246 13.5488 16.2281 13.5488C15.1552 13.5488 14.3994 14.3712 14.3994 15.8486C14.3994 17.3515 15.1617 18.1483 16.2248 18.1483C17.0096 18.1483 17.637 17.7163 17.7869 16.9494L18.985 16.9558C18.8019 18.2059 17.7687 19.2139 16.2088 19.2139C14.4797 19.2139 13.2056 17.9638 13.2056 15.8496C13.2056 13.7323 14.4957 12.4854 16.2088 12.4854C17.6627 12.4854 18.7837 13.3302 18.985 14.7851H17.7869V14.783Z" fill="#F26727"/>
<path d="M19.4529 16.6857C19.4529 15.1636 20.3683 14.146 21.8094 14.146C23.2505 14.146 24.1659 15.1636 24.1659 16.6857C24.1659 18.2047 23.2505 19.2191 21.8094 19.2191C20.3683 19.2191 19.4529 18.2047 19.4529 16.6857ZM22.9904 16.6825C22.9904 15.7833 22.5996 15.0644 21.8148 15.0644C21.0171 15.0644 20.6263 15.7844 20.6263 16.6825C20.6263 17.5807 21.0171 18.2911 21.8148 18.2911C22.5996 18.2911 22.9904 17.5807 22.9904 16.6825Z" fill="#F26727"/>
<path d="M25.9443 19.122H24.7848V14.21H25.8929V15.0452H25.9507C26.1745 14.498 26.6809 14.146 27.4176 14.146C28.4325 14.146 29.1049 14.818 29.1017 15.9945V19.122H27.9422V16.1737C27.9422 15.5177 27.5835 15.1252 26.985 15.1252C26.3737 15.1252 25.9443 15.5348 25.9443 16.2441V19.122Z" fill="#F26727"/>
<path d="M31.0803 19.122H29.9208V14.21H31.0289V15.0452H31.0867C31.3105 14.498 31.8169 14.146 32.5535 14.146C33.5685 14.146 34.2409 14.818 34.2377 15.9945V19.122H33.0782V16.1737C33.0782 15.5177 32.7195 15.1252 32.121 15.1252C31.5096 15.1252 31.0803 15.5348 31.0803 16.2441V19.122Z" fill="#F26727"/>
<path d="M34.8469 16.6953C34.8469 15.1796 35.7655 14.146 37.1745 14.146C38.3854 14.146 39.4229 14.9044 39.4229 16.6281V16.9833H35.9968C36.0064 17.8249 36.5032 18.3167 37.2516 18.3167C37.7516 18.3167 38.1349 18.0991 38.2923 17.6831L39.3747 17.8047C39.1702 18.6591 38.3822 19.218 37.2355 19.218C35.7537 19.218 34.8469 18.2367 34.8469 16.6953ZM38.3116 16.2025C38.3051 15.5337 37.8565 15.0484 37.1906 15.0484C36.4989 15.0484 36.0343 15.5764 36 16.2025H38.3116Z" fill="#F26727"/>
<path d="M39.8308 16.6857C39.8308 15.186 40.7398 14.146 42.1809 14.146C43.3812 14.146 44.2141 14.8468 44.2944 15.9113H43.1863C43.0964 15.4377 42.7538 15.0793 42.197 15.0793C41.4829 15.0793 41.0054 15.6745 41.0054 16.6655C41.0054 17.6703 41.4732 18.274 42.197 18.274C42.7056 18.274 43.0867 17.97 43.1863 17.442H44.2944C44.2109 18.4841 43.424 19.2169 42.1874 19.2169C40.7174 19.218 39.8308 18.1727 39.8308 16.6857Z" fill="#F26727"/>
<path d="M47.3437 15.1052H46.3737V17.6449C46.3737 18.1121 46.6071 18.2145 46.8994 18.2145C47.0439 18.2145 47.1745 18.1857 47.2387 18.1697L47.4336 19.0753C47.3083 19.1169 47.0814 19.1809 46.7516 19.1905C45.8811 19.2161 45.2077 18.7617 45.2141 17.838V15.1062H44.5161V14.2102H45.2141V13.0337H46.3737V14.2102H47.3437V15.1052Z" fill="#F26727"/>
</svg>
