<svg width="120" height="109" viewBox="0 0 120 109" fill="none" xmlns="http://www.w3.org/2000/svg">
<path d="M97.5055 109H112.507C113.892 109 115 107.877 115 106.507V96.5062C115 95.1215 113.876 94.0137 112.507 94.0137H97.5055C96.1208 94.0137 95.013 95.1368 95.013 96.5062V106.507C94.9976 107.877 96.1208 109 97.5055 109ZM109.999 103.999H99.9981V98.9988H109.999V103.999Z" fill="white"/>
<path d="M42.5002 109H57.5017C58.8864 109 59.9942 107.877 59.9942 106.507V96.5062C59.9942 95.1215 58.871 94.0137 57.5017 94.0137H42.5002C41.1155 94.0137 40.0077 95.1368 40.0077 96.5062V106.507C39.9923 107.877 41.1155 109 42.5002 109ZM54.9938 103.999H44.9928V98.9988H54.9938V103.999Z" fill="white"/>
<path d="M37.4998 98.999H117.507C118.892 98.999 120 97.8758 120 96.5064V81.505C120 80.8434 119.738 80.2126 119.261 79.7356L109.261 69.7346C108.799 69.273 108.153 68.9961 107.491 68.9961H47.4853C46.8237 68.9961 46.1929 69.2577 45.7159 69.7346L35.715 79.7356C35.2534 80.1972 34.9764 80.8434 34.9764 81.505V96.5064C34.9918 97.8758 36.115 98.999 37.4998 98.999ZM115 93.9985H39.9923V82.5359L48.5316 73.9966H106.46L115 82.5359V93.9985Z" fill="white"/>
<path d="M47.5007 73.9974H107.507C108.337 73.9974 109.107 73.582 109.584 72.905C110.045 72.2126 110.138 71.351 109.83 70.5817L99.8289 51.5645C99.4442 50.6106 98.5364 49.9951 97.5056 49.9951H57.5017C56.4862 49.9951 55.5631 50.6106 55.1784 51.5645L45.1774 70.5817C44.8697 71.351 44.962 72.228 45.4236 72.905C45.8852 73.582 46.6699 73.9974 47.5007 73.9974ZM103.814 68.9969H51.1934L59.1942 54.9802H95.8131L103.814 68.9969Z" fill="white"/>
<path d="M94.9976 88.9978H117.507C118.892 88.9978 120 87.8746 120 86.5052C120 85.1205 118.877 84.0127 117.507 84.0127H95.013C93.6282 84.0127 92.5204 85.1359 92.5204 86.5052C92.505 87.8746 93.6128 88.9978 94.9976 88.9978Z" fill="white"/>
<path d="M37.4998 88.9978H59.9942C61.379 88.9978 62.4868 87.8746 62.4868 86.5052C62.4868 85.1205 61.3636 84.0127 59.9942 84.0127H37.4998C36.115 84.0127 35.0072 85.1359 35.0072 86.5052C34.9918 87.8746 36.115 88.9978 37.4998 88.9978Z" fill="white"/>
<path d="M2.4964 109H22.4983C23.8831 109 24.9909 107.877 24.9909 106.507V51.4867C24.9909 50.1019 23.8677 48.9941 22.4983 48.9941H2.4964C1.11165 48.9941 0.00385475 50.1173 0.00385475 51.4867V106.492C-0.0115318 107.877 1.11165 109 2.4964 109ZM19.9904 103.999H4.98895V53.9946H19.9904V103.999Z" fill="white"/>
<path d="M22.4983 53.9945C23.0676 53.9945 23.6523 53.7944 24.1293 53.3944L80.9963 4.63587C82.0425 3.74347 82.1656 2.15871 81.2732 1.11245C80.3808 0.0661977 78.7961 -0.0568915 77.7498 0.835502L20.8674 49.594C19.8212 50.4864 19.6981 52.0712 20.5905 53.1175C21.0828 53.7021 21.7906 53.9945 22.4983 53.9945Z" fill="white"/>
</svg>
