<svg width="44" height="16" viewBox="0 0 44 16" fill="none" xmlns="http://www.w3.org/2000/svg">
<path d="M0.350182 13.3708H0.67709L0.373785 14.651C0.328939 14.8403 0.3372 14.9844 0.399749 15.0797C0.462298 15.1749 0.577956 15.2226 0.74672 15.2226C0.915485 15.2226 1.05239 15.1749 1.15978 15.0797C1.26718 14.9844 1.34389 14.8415 1.38873 14.651L1.69204 13.3708H2.02367L1.7121 14.6831C1.64483 14.9677 1.52445 15.1821 1.35097 15.3226C1.17866 15.4643 0.952071 15.5346 0.672369 15.5346C0.392668 15.5346 0.2003 15.4643 0.0952645 15.3226C-0.00977099 15.1821 -0.0274736 14.9677 0.0397963 14.6819L0.351362 13.3696L0.350182 13.3708Z" fill="white"/>
<path d="M1.9775 15.4799L2.49796 13.2876L3.48576 14.5761C3.51172 14.6118 3.53887 14.6511 3.56483 14.6928C3.5908 14.7345 3.61794 14.7809 3.64508 14.8321L3.99206 13.371H4.29772L3.77844 15.5609L2.7694 14.2486C2.74225 14.2129 2.71747 14.176 2.69386 14.1367C2.67026 14.0974 2.64902 14.0557 2.62895 14.0128L2.2808 15.4787H1.97632L1.9775 15.4799Z" fill="white"/>
<path d="M4.27197 15.4799L4.77237 13.3721H5.10282L4.60242 15.4799H4.27197Z" fill="white"/>
<path d="M5.07916 15.4799L5.57956 13.3721H6.71606L6.64761 13.6626H5.84155L5.71646 14.1878H6.52251L6.4517 14.4891H5.64565L5.41079 15.4799H5.08034H5.07916Z" fill="white"/>
<path d="M6.58032 15.4799L7.08072 13.3721H7.41116L6.91077 15.4799H6.58032Z" fill="white"/>
<path d="M7.38745 15.4799L7.88784 13.3721H9.02435L8.9559 13.6626H8.14984L8.02475 14.1914H8.8308L8.75999 14.4926H7.95393L7.79225 15.1738H8.59831L8.52514 15.481H7.38863L7.38745 15.4799Z" fill="white"/>
<path d="M8.90295 15.4799L9.40335 13.3721H9.84945C10.1398 13.3721 10.3404 13.3876 10.4513 13.4173C10.5623 13.4471 10.6543 13.4983 10.7263 13.5697C10.8219 13.6626 10.8833 13.7829 10.9092 13.9282C10.9352 14.0747 10.9258 14.2402 10.8821 14.4283C10.8373 14.6153 10.7676 14.7808 10.6732 14.9261C10.5788 15.0702 10.4608 15.1893 10.3203 15.2834C10.2141 15.3548 10.1008 15.4048 9.98045 15.4358C9.86008 15.4656 9.67951 15.481 9.43875 15.481H8.90295V15.4799ZM9.30775 15.1702H9.58627C9.7397 15.1702 9.85653 15.1595 9.93797 15.1381C10.0194 15.1167 10.0937 15.0809 10.1634 15.0309C10.2566 14.963 10.3345 14.8785 10.3971 14.7773C10.4596 14.676 10.5068 14.5581 10.5387 14.4236C10.5705 14.289 10.5788 14.1711 10.5646 14.0699C10.5505 13.9687 10.5127 13.8841 10.4513 13.8151C10.4053 13.765 10.3451 13.7293 10.2696 13.7079C10.1941 13.6865 10.0713 13.6757 9.90138 13.6757H9.66181L9.30775 15.1679V15.1702Z" fill="white"/>
<path d="M12.4068 14.5331L12.1826 15.4799H11.8722L12.3726 13.3721H12.873C13.0217 13.3721 13.1291 13.3804 13.1952 13.3971C13.2613 13.4137 13.3155 13.4411 13.358 13.4804C13.41 13.5293 13.4442 13.5959 13.4607 13.6781C13.4772 13.7615 13.4737 13.8532 13.4501 13.952C13.4265 14.052 13.3864 14.1437 13.3297 14.2283C13.2731 14.3128 13.2081 14.3795 13.1326 14.4272C13.0712 14.4653 13.004 14.4926 12.9308 14.5093C12.8565 14.526 12.7455 14.5343 12.598 14.5343H12.4068V14.5331ZM12.4941 14.2521H12.5791C12.7632 14.2521 12.8895 14.2319 12.9615 14.1902C13.0323 14.1485 13.0807 14.0759 13.1055 13.9711C13.1326 13.8591 13.1185 13.7793 13.0642 13.7341C13.0099 13.6876 12.8954 13.665 12.7196 13.665H12.6346L12.4953 14.2533L12.4941 14.2521Z" fill="white"/>
<path d="M14.5784 15.4799L14.4758 14.9369H13.6685L13.3038 15.4799H12.9557L14.4616 13.2876L14.9266 15.4799H14.5772H14.5784ZM13.8597 14.6511H14.4274L14.333 14.17C14.3282 14.139 14.3247 14.1045 14.3211 14.064C14.3176 14.0247 14.3152 13.9795 14.3141 13.9307C14.2916 13.9771 14.2704 14.02 14.248 14.0593C14.2256 14.0986 14.2043 14.1355 14.1831 14.1688L13.8609 14.6499L13.8597 14.6511Z" fill="white"/>
<path d="M15.4018 15.4799L15.6308 14.5153L15.2166 13.3721H15.5647L15.822 14.0878C15.8279 14.1056 15.835 14.1306 15.8432 14.1604C15.8515 14.1902 15.8597 14.2223 15.8668 14.2569C15.8881 14.2235 15.9093 14.1914 15.9306 14.1616C15.9518 14.1318 15.973 14.1044 15.9955 14.0794L16.6009 13.3721H16.9325L15.9601 14.5153L15.7311 15.4799H15.403H15.4018Z" fill="white"/>
<path d="M18.5602 14.4378C18.5602 14.4211 18.5649 14.3758 18.5743 14.302C18.5814 14.2401 18.5873 14.1901 18.5908 14.1496C18.5708 14.1972 18.5484 14.246 18.5212 14.2937C18.4941 14.3413 18.4634 14.3901 18.4292 14.4402L17.6302 15.5631L17.3694 14.4163C17.3587 14.3687 17.3493 14.3234 17.3446 14.2794C17.3387 14.2353 17.3351 14.1913 17.3328 14.1484C17.321 14.1925 17.3068 14.2389 17.2891 14.2877C17.2714 14.3365 17.2502 14.3866 17.2266 14.4402L16.7616 15.4786H16.4571L17.4602 13.2815L17.7458 14.6116C17.7506 14.6331 17.7565 14.6676 17.7635 14.7164C17.7706 14.7653 17.7789 14.826 17.7895 14.8974C17.8237 14.8367 17.8721 14.7605 17.9358 14.6664C17.9524 14.6414 17.9654 14.6223 17.9748 14.6093L18.8776 13.2803L18.8493 15.4774H18.5413L18.5625 14.4366L18.5602 14.4378Z" fill="white"/>
<path d="M19.11 15.4799L19.6104 13.3721H20.7469L20.6784 13.6626H19.8724L19.7473 14.1914H20.5533L20.4825 14.4926H19.6765L19.5148 15.1738H20.3208L20.2477 15.481H19.1112L19.11 15.4799Z" fill="white"/>
<path d="M20.6267 15.4799L21.1471 13.2876L22.1349 14.5761C22.1609 14.6118 22.188 14.6511 22.214 14.6928C22.24 14.7345 22.2671 14.7809 22.2943 14.8321L22.6412 13.371H22.9469L22.4276 15.5609L21.4186 14.2486C21.3914 14.2129 21.3666 14.176 21.343 14.1367C21.3194 14.0974 21.2982 14.0557 21.2781 14.0128L20.93 15.4787H20.6255L20.6267 15.4799Z" fill="white"/>
<path d="M24.0045 13.6626L23.5737 15.4799H23.2433L23.6741 13.6626H23.1335L23.202 13.3721H24.6123L24.5439 13.6626H24.0057H24.0045Z" fill="white"/>
<path d="M24.348 15.0569L24.6419 14.9307C24.6443 15.0247 24.6738 15.0962 24.7281 15.1462C24.7835 15.1962 24.8626 15.22 24.9665 15.22C25.0644 15.22 25.1494 15.1915 25.2214 15.1355C25.2922 15.0795 25.3394 15.0033 25.3618 14.908C25.3913 14.7842 25.3182 14.6734 25.1423 14.577C25.1175 14.5627 25.0986 14.552 25.0857 14.5448C24.8886 14.4317 24.7623 14.3293 24.7104 14.2376C24.6573 14.1459 24.6466 14.034 24.6785 13.9018C24.7198 13.7303 24.8083 13.591 24.9464 13.4838C25.0845 13.3766 25.245 13.3242 25.4279 13.3242C25.5778 13.3242 25.697 13.354 25.7831 13.4147C25.8705 13.4743 25.92 13.5612 25.9318 13.6731L25.6403 13.8113C25.6156 13.7446 25.5813 13.697 25.54 13.666C25.4987 13.635 25.4468 13.6195 25.3831 13.6195C25.2945 13.6195 25.2178 13.6434 25.1541 13.691C25.0904 13.7386 25.0491 13.8029 25.0302 13.8839C25.0007 14.0113 25.0868 14.1292 25.291 14.2388C25.3063 14.2471 25.3193 14.2543 25.3276 14.259C25.5058 14.3543 25.6226 14.4484 25.6757 14.5401C25.7289 14.6318 25.7395 14.7461 25.7076 14.883C25.6604 15.0831 25.5624 15.2415 25.4126 15.3594C25.2627 15.4773 25.0845 15.5356 24.8779 15.5356C24.7045 15.5356 24.5723 15.4939 24.4814 15.4118C24.3905 15.3296 24.3457 15.2117 24.348 15.0581V15.0569Z" fill="white"/>
<path d="M26.7946 15.4799L27.295 13.3721H27.6255L27.1251 15.4799H26.7946Z" fill="white"/>
<path d="M27.6004 15.4799L28.1208 13.2876L29.1086 14.5761C29.1346 14.6118 29.1617 14.6511 29.1877 14.6928C29.2137 14.7345 29.2408 14.7809 29.2679 14.8321L29.6149 13.371H29.9206L29.4013 15.5609L28.3923 14.2486C28.3651 14.2129 28.3403 14.176 28.3167 14.1367C28.2931 14.0974 28.2719 14.0557 28.2518 14.0128L27.9037 15.4787H27.5992L27.6004 15.4799Z" fill="white"/>
<path d="M30.9781 13.6626L30.5474 15.4799H30.2169L30.6477 13.6626H30.1072L30.1756 13.3721H31.5859L31.5175 13.6626H30.9793H30.9781Z" fill="white"/>
<path d="M31.339 15.4799L31.8394 13.3721H32.9759L32.9074 13.6626H32.1014L31.9763 14.1914H32.7823L32.7115 14.4926H31.9055L31.7438 15.1738H32.5498L32.4767 15.481H31.3402L31.339 15.4799Z" fill="white"/>
<path d="M33.3891 14.5367L33.1649 15.4799H32.8545L33.3549 13.3721H33.8163C33.9521 13.3721 34.0547 13.3816 34.1244 13.3995C34.1952 13.4173 34.2518 13.4483 34.2943 13.49C34.3451 13.5412 34.3781 13.6067 34.3934 13.6876C34.4088 13.7686 34.4052 13.8567 34.3816 13.952C34.3415 14.1211 34.2707 14.2533 34.1692 14.3486C34.0677 14.4438 33.9379 14.501 33.7797 14.52L34.253 15.4787H33.8789L33.4257 14.5355H33.3879L33.3891 14.5367ZM33.4729 14.27H33.5331C33.7078 14.27 33.8293 14.2485 33.8978 14.2068C33.965 14.1652 34.0122 14.0901 34.037 13.9818C34.0642 13.8663 34.0535 13.7841 34.0028 13.7365C33.9521 13.6888 33.8435 13.665 33.6771 13.665H33.6169L33.4729 14.27Z" fill="white"/>
<path d="M34.4514 15.4799L34.9518 13.3721H36.0883L36.0199 13.6626H35.2138L35.0887 14.1878H35.8948L35.824 14.4891H35.0179L34.783 15.4799H34.4526H34.4514Z" fill="white"/>
<path d="M37.1902 15.4799L37.0876 14.9369H36.2803L35.9157 15.4799H35.5675L37.0734 13.2876L37.5384 15.4799H37.1891H37.1902ZM36.4715 14.6511H37.0392L36.9448 14.17C36.94 14.139 36.9365 14.1045 36.9318 14.064C36.9282 14.0247 36.9259 13.9795 36.9247 13.9307C36.9023 13.9771 36.881 14.02 36.8586 14.0593C36.8362 14.0986 36.8149 14.1355 36.7937 14.1688L36.4715 14.6499V14.6511Z" fill="white"/>
<path d="M39.6952 13.8841C39.6208 13.8019 39.537 13.74 39.4426 13.6983C39.3482 13.6566 39.2432 13.6364 39.1287 13.6364C38.9056 13.6364 38.7074 13.7102 38.5327 13.8579C38.358 14.0055 38.2424 14.1973 38.1869 14.433C38.1326 14.6605 38.1562 14.8486 38.2577 14.9963C38.358 15.144 38.5126 15.2178 38.7192 15.2178C38.8395 15.2178 38.9599 15.1952 39.0791 15.1511C39.1983 15.1071 39.3187 15.0404 39.4403 14.9511L39.3482 15.3381C39.2432 15.4048 39.1346 15.4536 39.0225 15.4869C38.9104 15.5191 38.7923 15.5358 38.6696 15.5358C38.5138 15.5358 38.3757 15.5096 38.2565 15.456C38.1373 15.4036 38.0394 15.3262 37.9639 15.2226C37.8883 15.1214 37.8399 15.0035 37.8199 14.8665C37.7986 14.7296 37.8069 14.5843 37.8435 14.4295C37.8801 14.2747 37.9414 14.1294 38.0264 13.9936C38.1114 13.8579 38.2176 13.7388 38.3427 13.6364C38.469 13.5328 38.6035 13.4542 38.7463 13.4006C38.8891 13.347 39.0378 13.3208 39.1901 13.3208C39.3093 13.3208 39.419 13.3387 39.5193 13.3744C39.6196 13.4101 39.7117 13.4649 39.7967 13.5375L39.6964 13.8829L39.6952 13.8841Z" fill="white"/>
<path d="M39.7264 15.4799L40.2268 13.3721H41.3633L41.2948 13.6626H40.4888L40.3637 14.1914H41.1697L41.0989 14.4926H40.2929L40.1312 15.1738H40.9372L40.8641 15.481H39.7276L39.7264 15.4799Z" fill="white"/>
<path d="M33.6885 11.5345H31.4131L34.5783 0H36.8537L33.6885 11.5345Z" fill="white"/>
<path d="M32.507 0.36453C32.3489 0.145416 32.1058 0.034668 31.7753 0.034668H19.2608L18.6412 2.29369H20.9177L30.0251 2.2925L29.3631 4.70633H20.2557V4.70157H17.9803L16.0908 11.5834H18.3686L19.6361 6.96416H29.8741C30.1939 6.96416 30.4948 6.85461 30.7781 6.6343C31.0601 6.41399 31.2466 6.14248 31.3351 5.81738L32.6026 1.19812C32.6947 0.862301 32.6628 0.584836 32.507 0.36453Z" fill="white"/>
<path d="M14.7657 10.8139C14.6395 11.27 14.2276 11.5867 13.7579 11.5867H2.01632C1.69649 11.5867 1.4581 11.4772 1.30232 11.2569C1.14653 11.0366 1.11231 10.765 1.202 10.4399L4.06746 0.0332031H6.3452L3.78658 9.32771H12.8987L15.4561 0.0332031H17.7339L14.7657 10.8139Z" fill="white"/>
<path d="M40.7849 0.0214844L43.6657 5.80301L37.6091 11.5833L40.7849 0.0214844Z" fill="#0F8041"/>
<path d="M38.764 0.0214844L41.6436 5.80301L35.5834 11.5833L38.764 0.0214844Z" fill="#E97726"/>
</svg>
