<svg width="90" height="90" viewBox="0 0 90 90" fill="none" xmlns="http://www.w3.org/2000/svg">
<path d="M45 1.5C69.0221 1.5 88.4999 20.9436 88.5 44.9336C88.5 68.9236 69.0222 88.3672 45 88.3672C20.9778 88.3672 1.5 68.9236 1.5 44.9336C1.50006 20.9436 20.9779 1.5 45 1.5Z" fill="none" stroke="#AD1D26" stroke-width="3"/>
<path d="M45.0001 68.3332C57.8334 68.3332 68.3334 57.8332 68.3334 44.9998C68.3334 32.1665 57.8334 21.6665 45.0001 21.6665C32.1667 21.6665 21.6667 32.1665 21.6667 44.9998C21.6667 57.8332 32.1667 68.3332 45.0001 68.3332Z" stroke="#AD1D26" stroke-width="3" stroke-linecap="round" stroke-linejoin="round"/>
<path d="M38.3967 51.6031L51.6034 38.3965" stroke="#AD1D26" stroke-width="3" stroke-linecap="round" stroke-linejoin="round"/>
<path d="M51.6034 51.6031L38.3967 38.3965" stroke="#AD1D26" stroke-width="3" stroke-linecap="round" stroke-linejoin="round"/>
</svg>
