<svg width="55" height="15" viewBox="0 0 55 15" fill="none" xmlns="http://www.w3.org/2000/svg">
<path d="M53.0786 5.04883V4.39758C53.0786 4.38845 53.0708 4.38085 53.0615 4.38085H52.8447C52.8354 4.38085 52.8276 4.37324 52.8276 4.36411V4.24086C52.8276 4.23173 52.8354 4.22412 52.8447 4.22412H53.4953C53.5046 4.22412 53.5123 4.23173 53.5123 4.24086V4.36411C53.5123 4.37324 53.5046 4.38085 53.4953 4.38085H53.28C53.2707 4.38085 53.2629 4.38845 53.2629 4.39758V5.04883C53.2629 5.05796 53.2552 5.06557 53.2459 5.06557H53.0972C53.0879 5.06557 53.0801 5.05796 53.0801 5.04883" fill="white"/>
<path d="M54.3763 5.04889V4.5635C54.3763 4.54524 54.35 4.53915 54.3422 4.55741L54.1331 5.06563H54.0525L53.8434 4.55741C53.8372 4.53915 53.8094 4.54524 53.8094 4.5635V5.04889C53.8094 5.05802 53.8016 5.06563 53.7923 5.06563H53.6452C53.6359 5.06563 53.6281 5.05802 53.6281 5.04889V4.23939C53.6281 4.23026 53.6359 4.22266 53.6452 4.22266H53.8729C53.8729 4.22266 53.8868 4.22722 53.8884 4.23331L54.0758 4.69283C54.082 4.70653 54.1021 4.70653 54.1083 4.69283L54.2957 4.23331C54.2957 4.23331 54.305 4.22266 54.3112 4.22266H54.5389C54.5482 4.22266 54.556 4.23026 54.556 4.23939V5.04889C54.556 5.05802 54.5482 5.06563 54.5389 5.06563H54.3902C54.3809 5.06563 54.3732 5.05802 54.3732 5.04889" fill="white"/>
<path d="M15.2691 7.5C15.2691 11.6418 11.851 15 7.63534 15C3.41964 15 0 11.6433 0 7.5C0 3.35666 3.41809 0 7.63379 0C11.8495 0 15.2676 3.35819 15.2676 7.5" fill="#25D800"/>
<path d="M9.39494 11.4162C8.63296 11.4162 8.14665 10.666 8.05527 10.5154C7.78579 10.0665 7.5318 9.35745 7.29793 8.40949C7.26851 8.29232 7.157 7.73542 7.13377 7.62434C6.88287 6.40097 6.5917 5.47127 6.31293 5.00565C6.20607 4.82763 5.98614 4.61156 5.87308 4.61156H5.82662C5.71201 4.61156 5.49209 4.82763 5.38523 5.00565C5.21177 5.29476 5.02902 5.77559 4.85711 6.3964L4.75179 6.77376H2.36672C2.07865 6.77376 1.84479 6.544 1.84479 6.26098C1.84479 5.97796 2.07865 5.7482 2.36672 5.7482H3.96038C4.12764 5.21259 4.30265 4.78959 4.48541 4.48526C4.57523 4.33462 5.06464 3.58447 5.82507 3.58447H5.87463C6.63662 3.58447 7.12293 4.33462 7.21275 4.48526C7.55812 5.06347 7.87717 6.051 8.15749 7.42349C8.20705 7.67303 8.29378 8.09299 8.31236 8.16755C8.5741 9.22659 8.80642 9.74698 8.9551 9.99652C9.06196 10.1746 9.28188 10.3906 9.39494 10.3906H9.4414C9.55601 10.3906 9.77593 10.1746 9.8828 9.99652C10.0036 9.79415 10.1941 9.3894 10.4125 8.60425L10.5178 8.22689H12.9029C13.1909 8.22689 13.4248 8.45666 13.4248 8.73968C13.4248 9.02269 13.1909 9.25246 12.9029 9.25246H11.3092C11.1419 9.78806 10.9669 10.2126 10.7842 10.5154C10.6943 10.666 10.208 11.4162 9.4445 11.4162H9.39649H9.39494Z" fill="white"/>
<path d="M20.4753 11.4163C20.4195 11.4163 20.3684 11.3996 20.325 11.3646C20.2801 11.3311 20.2584 11.2794 20.2584 11.2109V3.51765H18.1161C18.051 3.51765 17.9999 3.49635 17.9596 3.45527C17.9194 3.41418 17.8992 3.36701 17.8992 3.31376C17.8992 3.2605 17.9194 3.21333 17.9596 3.17225C17.9999 3.13117 18.051 3.10986 18.1161 3.10986H22.8236C22.8964 3.10986 22.9506 3.12812 22.9862 3.16616C23.0219 3.2042 23.0405 3.24985 23.0405 3.30311C23.0405 3.35636 23.025 3.40506 22.9924 3.4507C22.9599 3.49635 22.9041 3.51918 22.8236 3.51918H20.6921V11.2124C20.6921 11.2809 20.6704 11.3311 20.6255 11.3661C20.5806 11.3996 20.531 11.4178 20.4753 11.4178V11.4163Z" fill="white" stroke="white" stroke-width="0.4"/>
<path d="M24.7355 11.4849C24.3575 11.4849 24.0074 11.3891 23.6821 11.1958C23.3568 11.0026 23.0966 10.7485 22.8999 10.435C22.7031 10.12 22.6056 9.78225 22.6056 9.41858V8.0324C22.6056 7.66874 22.7016 7.33246 22.8952 7.02053C23.0873 6.71012 23.346 6.46058 23.6713 6.27038C23.9966 6.0817 24.3513 5.98584 24.737 5.98584C25.1227 5.98584 25.4775 6.07866 25.8028 6.26429C26.1281 6.44993 26.3883 6.69643 26.585 7.00227C26.7817 7.30812 26.8793 7.652 26.8793 8.03088V9.41706C26.8793 9.77312 26.7817 10.1109 26.585 10.4289C26.3883 10.7469 26.1281 11.0026 25.8028 11.1958C25.4775 11.3891 25.1227 11.4849 24.737 11.4849H24.7355ZM24.7355 11.0878C25.0561 11.0878 25.3458 11.0087 25.6029 10.8489C25.8601 10.6891 26.0661 10.4822 26.2225 10.2235C26.379 9.96636 26.458 9.69704 26.458 9.41706V8.03088C26.458 7.7509 26.3821 7.48614 26.2287 7.23508C26.0769 6.98554 25.8694 6.78012 25.6091 6.62187C25.3489 6.4621 25.0577 6.38298 24.737 6.38298C24.4164 6.38298 24.1267 6.4621 23.8696 6.62187C23.6124 6.78164 23.408 6.98554 23.2562 7.23508C23.1043 7.48462 23.0269 7.7509 23.0269 8.03088V9.41706C23.0269 9.69704 23.1028 9.96636 23.2562 10.2235C23.408 10.4807 23.6155 10.6891 23.8758 10.8489C24.136 11.0087 24.4241 11.0878 24.737 11.0878H24.7355Z" fill="white" stroke="white" stroke-width="0.4"/>
<path d="M28.5033 11.4165C28.4475 11.4165 28.3995 11.3952 28.3592 11.3541C28.3189 11.313 28.2988 11.2658 28.2988 11.2126V6.24603C28.2988 6.18517 28.3189 6.138 28.3592 6.10452C28.3995 6.07105 28.4475 6.05279 28.5033 6.05279C28.5668 6.05279 28.6194 6.06953 28.6597 6.10452C28.7 6.138 28.7201 6.18669 28.7201 6.24603V6.84859C28.8564 6.62948 29.0594 6.43015 29.3274 6.25212C29.5969 6.07409 29.9315 5.98584 30.3327 5.98584C30.7339 5.98584 31.0871 6.07866 31.417 6.26429C31.7454 6.44993 32.0087 6.69643 32.2054 7.00227C32.4022 7.30964 32.4998 7.652 32.4998 8.03088V11.2126C32.4998 11.281 32.4781 11.3312 32.4332 11.3662C32.3882 11.3997 32.3387 11.418 32.2829 11.418C32.2349 11.418 32.1884 11.4012 32.145 11.3662C32.1001 11.3328 32.0784 11.281 32.0784 11.2126V8.03088C32.0784 7.7509 32.001 7.48614 31.843 7.23508C31.6865 6.98554 31.4805 6.78012 31.2234 6.62187C30.9662 6.4621 30.6812 6.38298 30.3683 6.38298C30.0957 6.38298 29.8323 6.44993 29.5798 6.58231C29.3274 6.71469 29.1198 6.90185 28.9602 7.1453C28.7991 7.38724 28.7201 7.68395 28.7201 8.0324V11.2141C28.7201 11.2673 28.7 11.3145 28.6597 11.3556C28.6194 11.3967 28.5668 11.418 28.5033 11.418V11.4165Z" fill="white" stroke="white" stroke-width="0.4"/>
<path d="M36.3137 11.485C35.8397 11.485 35.4214 11.3983 35.0558 11.2233C34.6903 11.0498 34.4037 10.8079 34.1946 10.502C33.9855 10.1947 33.8817 9.83404 33.8817 9.41712V7.99594C33.8817 7.63227 33.9793 7.29752 34.176 6.99016C34.3727 6.68279 34.633 6.43933 34.9583 6.25674C35.2836 6.07415 35.6383 5.98438 36.024 5.98438C36.4097 5.98438 36.752 6.07415 37.0773 6.25066C37.4026 6.42868 37.6629 6.67062 37.8596 6.97798C38.0563 7.28535 38.1539 7.63532 38.1539 8.02941C38.1539 8.30178 38.1059 8.49959 38.0098 8.6198C37.9138 8.74153 37.7914 8.81456 37.6427 8.84195C37.494 8.86782 37.3314 8.88151 37.1548 8.88151H34.3015V9.4156C34.3015 9.93142 34.4936 10.3377 34.8793 10.6374C35.265 10.9372 35.7498 11.0863 36.3353 11.0863C36.673 11.0863 36.9286 11.0468 37.1052 10.9676C37.2818 10.8885 37.4166 10.8109 37.508 10.7348C37.5994 10.6587 37.683 10.6207 37.7543 10.6207C37.7945 10.6207 37.8302 10.6329 37.8627 10.6542C37.8952 10.677 37.9215 10.7029 37.9401 10.7333C37.9603 10.7637 37.9696 10.7942 37.9696 10.8246C37.9696 10.8931 37.903 10.9798 37.7713 11.0863C37.6381 11.1928 37.4475 11.2857 37.1997 11.3648C36.9503 11.4439 36.6544 11.4835 36.309 11.4835L36.3137 11.485ZM34.303 8.48437H37.0123C37.3097 8.48437 37.5033 8.45851 37.5963 8.40525C37.6876 8.35199 37.7341 8.2394 37.7341 8.06441C37.7341 7.79204 37.6644 7.52576 37.5234 7.26861C37.3825 7.01146 37.1842 6.79843 36.9271 6.63258C36.6699 6.46672 36.3694 6.38304 36.024 6.38304C35.7033 6.38304 35.4121 6.45912 35.1519 6.60975C34.8916 6.76192 34.6841 6.9582 34.5323 7.20014C34.3805 7.44207 34.303 7.70835 34.303 7.99594V8.48437Z" fill="white" stroke="white" stroke-width="0.4"/>
<path d="M39.9261 11.4163C39.8703 11.4163 39.8192 11.3996 39.7758 11.3646C39.7309 11.3311 39.7092 11.2794 39.7092 11.2109V3.51765H37.5669C37.5018 3.51765 37.4507 3.49635 37.4104 3.45527C37.3702 3.41418 37.35 3.36701 37.35 3.31376C37.35 3.2605 37.3702 3.21333 37.4104 3.17225C37.4507 3.13117 37.5018 3.10986 37.5669 3.10986H42.2744C42.3472 3.10986 42.4014 3.12812 42.437 3.16616C42.4727 3.2042 42.4913 3.24985 42.4913 3.30311C42.4913 3.35636 42.4758 3.40506 42.4432 3.4507C42.4107 3.49635 42.355 3.51918 42.2744 3.51918H40.1429V11.2124C40.1429 11.2809 40.1213 11.3311 40.0763 11.3661C40.0314 11.3996 39.9818 11.4178 39.9261 11.4178V11.4163Z" fill="white" stroke="white" stroke-width="0.4"/>
<path d="M43.308 11.485C42.8433 11.485 42.4467 11.3617 42.1214 11.1152C41.7961 10.8687 41.6335 10.4929 41.6335 9.98468C41.6335 9.58297 41.7512 9.27409 41.9882 9.05802C42.2252 8.84195 42.5536 8.69283 42.9749 8.60915C43.3963 8.52546 43.8842 8.48437 44.4372 8.48437H45.1111V8.16636C45.1111 7.87877 45.0584 7.5988 44.9546 7.32491C44.8508 7.05254 44.682 6.82734 44.4496 6.64932C44.2173 6.47129 43.9075 6.38304 43.5233 6.38304C43.2739 6.38304 43.0663 6.40738 42.8975 6.45759C42.7286 6.50629 42.5939 6.55802 42.4947 6.61128C42.3941 6.66453 42.3197 6.6904 42.2717 6.6904C42.2066 6.6904 42.1555 6.66149 42.1152 6.60519C42.075 6.54889 42.0548 6.50172 42.0548 6.46368C42.0548 6.3876 42.1292 6.31456 42.2779 6.24153C42.4266 6.17001 42.6156 6.10915 42.8433 6.05893C43.0725 6.01024 43.3064 5.98438 43.5481 5.98438C44.0453 5.98438 44.4388 6.08784 44.7284 6.2963C45.0181 6.50476 45.2241 6.77409 45.3481 7.10276C45.472 7.43294 45.5339 7.78596 45.5339 8.16484V11.2111C45.5339 11.2643 45.5153 11.3115 45.4797 11.3526C45.4441 11.3937 45.393 11.415 45.3295 11.415C45.2737 11.415 45.2226 11.3937 45.1792 11.3526C45.1343 11.3115 45.1126 11.2643 45.1126 11.2111V10.6207C44.9112 10.8413 44.6603 11.0392 44.3598 11.2172C44.0593 11.3952 43.7076 11.4835 43.3064 11.4835L43.308 11.485ZM43.2956 11.0878C43.6007 11.0878 43.892 11.0178 44.1677 10.8779C44.445 10.7379 44.6711 10.569 44.8477 10.3727C45.0243 10.1764 45.1126 9.99837 45.1126 9.8386V8.88456H44.4512C44.0422 8.88456 43.655 8.90738 43.2894 8.95303C42.9238 8.99868 42.628 9.0991 42.3987 9.25431C42.1694 9.40951 42.0564 9.65449 42.0564 9.98772C42.0564 10.3666 42.1772 10.6451 42.4173 10.8231C42.6574 11.0011 42.9517 11.0894 43.2956 11.0894V11.0878Z" fill="white" stroke="white" stroke-width="0.4"/>
<path d="M49.0245 14.1096C48.5583 14.1096 48.1524 14.0488 47.8024 13.927C47.4538 13.8053 47.1796 13.6349 46.9829 13.4158C46.7862 13.1967 46.6886 12.938 46.6886 12.6428C46.6886 12.2944 46.8032 12.0189 47.0325 11.8181C47.2617 11.6172 47.5111 11.4712 47.7853 11.3799C47.5684 11.319 47.3919 11.2308 47.2555 11.1121C47.1192 10.9949 47.0511 10.8154 47.0511 10.5719C47.0511 10.3604 47.1053 10.1945 47.2137 10.0774C47.3222 9.96021 47.4647 9.86283 47.6413 9.78675C47.4414 9.62089 47.2865 9.41395 47.1781 9.16745C47.0697 8.92095 47.0154 8.6501 47.0154 8.35491V7.84365C47.0154 7.47999 47.096 7.15741 47.2555 6.87743C47.4166 6.59746 47.6428 6.37682 47.9356 6.21858C48.2283 6.05881 48.5676 5.97968 48.9533 5.97968C49.2507 5.97968 49.5187 6.02685 49.7603 6.12119C50.0004 6.21553 50.2095 6.35096 50.3861 6.52442C50.4992 6.32813 50.6386 6.16228 50.8075 6.0299C50.9763 5.89752 51.1359 5.83057 51.2892 5.83057C51.3775 5.83057 51.441 5.85339 51.4813 5.89904C51.5216 5.94469 51.5417 5.99794 51.5417 6.05729C51.5417 6.12576 51.52 6.17901 51.4751 6.21705C51.4302 6.25509 51.3806 6.27335 51.3248 6.27335C51.2211 6.27335 51.1018 6.30683 50.9701 6.3753C50.8384 6.44377 50.7145 6.58376 50.603 6.79527C50.7068 6.93221 50.7842 7.09046 50.8323 7.27305C50.8803 7.45412 50.9051 7.64432 50.9051 7.84061V8.35187C50.9051 8.70793 50.823 9.03051 50.6588 9.31809C50.4946 9.60567 50.2638 9.83087 49.9663 9.99368C49.6689 10.1565 49.3281 10.2387 48.9424 10.2387C48.5567 10.2387 48.2438 10.1595 47.9557 9.99977C47.8349 10.053 47.7249 10.1185 47.6242 10.1991C47.5235 10.2782 47.474 10.3939 47.474 10.546C47.474 10.7362 47.5669 10.8717 47.7512 10.9553C47.9356 11.039 48.1726 11.0953 48.4607 11.1258C48.7504 11.1562 49.054 11.1866 49.3762 11.2171C49.6968 11.2475 50.002 11.3038 50.2916 11.3875C50.5813 11.4712 50.8168 11.6035 51.0011 11.7846C51.1854 11.9657 51.2784 12.2274 51.2784 12.5682C51.2784 12.9091 51.1854 13.1708 51.0011 13.3975C50.8168 13.6242 50.5581 13.7992 50.225 13.921C49.892 14.0427 49.4923 14.1035 49.0276 14.1035L49.0245 14.1096ZM49.0245 13.746C49.6178 13.746 50.0717 13.6395 50.3846 13.428C50.6975 13.2164 50.8539 12.935 50.8539 12.5865C50.8539 12.3141 50.7641 12.1072 50.5829 11.9672C50.4016 11.8272 50.1755 11.7283 49.9028 11.672C49.6302 11.6157 49.3545 11.5777 49.0788 11.5579C48.8015 11.5396 48.5676 11.5183 48.3739 11.4955C48.0533 11.5792 47.7621 11.7055 47.5018 11.8759C47.2416 12.0463 47.1099 12.2913 47.1099 12.6093C47.1099 12.9273 47.2757 13.2149 47.6103 13.428C47.9433 13.6395 48.4142 13.746 49.0245 13.746ZM48.9641 9.84761C49.4381 9.84761 49.8083 9.7061 50.0779 9.42156C50.3474 9.13702 50.4806 8.78401 50.4806 8.35948V7.84822C50.4806 7.4313 50.3459 7.08285 50.0779 6.80287C49.8083 6.5229 49.4335 6.38291 48.9517 6.38291C48.47 6.38291 48.0967 6.5229 47.8318 6.80287C47.5669 7.08285 47.4352 7.4313 47.4352 7.84822V8.34883C47.4352 8.77335 47.57 9.12941 47.838 9.41699C48.1075 9.70458 48.4824 9.84913 48.9641 9.84913V9.84761Z" fill="white" stroke="white" stroke-width="0.4"/>
</svg>
