<svg width="55" height="15" viewBox="0 0 55 15" fill="none" xmlns="http://www.w3.org/2000/svg">
<path d="M53.0791 5.04883V4.39758C53.0791 4.38845 53.0713 4.38085 53.062 4.38085H52.8452C52.8359 4.38085 52.8281 4.37324 52.8281 4.36411V4.24086C52.8281 4.23173 52.8359 4.22412 52.8452 4.22412H53.4958C53.5051 4.22412 53.5128 4.23173 53.5128 4.24086V4.36411C53.5128 4.37324 53.5051 4.38085 53.4958 4.38085H53.2804C53.2711 4.38085 53.2634 4.38845 53.2634 4.39758V5.04883C53.2634 5.05796 53.2557 5.06557 53.2464 5.06557H53.0977C53.0884 5.06557 53.0806 5.05796 53.0806 5.04883" fill="white"/>
<path d="M54.3771 5.04889V4.5635C54.3771 4.54524 54.3508 4.53915 54.343 4.55741L54.1339 5.06563H54.0533L53.8442 4.55741C53.838 4.53915 53.8101 4.54524 53.8101 4.5635V5.04889C53.8101 5.05802 53.8024 5.06563 53.7931 5.06563H53.6459C53.6367 5.06563 53.6289 5.05802 53.6289 5.04889V4.23939C53.6289 4.23026 53.6367 4.22266 53.6459 4.22266H53.8737C53.8737 4.22266 53.8876 4.22722 53.8891 4.23331L54.0766 4.69283C54.0828 4.70653 54.1029 4.70653 54.1091 4.69283L54.2965 4.23331C54.2965 4.23331 54.3058 4.22266 54.312 4.22266H54.5397C54.549 4.22266 54.5568 4.23026 54.5568 4.23939V5.04889C54.5568 5.05802 54.549 5.06563 54.5397 5.06563H54.391C54.3817 5.06563 54.374 5.05802 54.374 5.04889" fill="white"/>
<path d="M15.2691 7.5C15.2691 11.6418 11.851 15 7.63534 15C3.41964 15 0 11.6433 0 7.5C0 3.35666 3.41809 0 7.63379 0C11.8495 0 15.2676 3.35819 15.2676 7.5" fill="#25D800"/>
<path d="M9.39488 11.4162C8.63289 11.4162 8.14659 10.666 8.05521 10.5154C7.78573 10.0665 7.53173 9.35745 7.29787 8.40949C7.26845 8.29232 7.15694 7.73542 7.13371 7.62434C6.88281 6.40097 6.59164 5.47127 6.31287 5.00565C6.206 4.82763 5.98608 4.61156 5.87302 4.61156H5.82656C5.71195 4.61156 5.49203 4.82763 5.38517 5.00565C5.21171 5.29476 5.02896 5.77559 4.85704 6.3964L4.75173 6.77376H2.36666C2.07859 6.77376 1.84473 6.544 1.84473 6.26098C1.84473 5.97796 2.07859 5.7482 2.36666 5.7482H3.96032C4.12758 5.21259 4.30259 4.78959 4.48534 4.48526C4.57517 4.33462 5.06458 3.58447 5.82501 3.58447H5.87457C6.63656 3.58447 7.12286 4.33462 7.21269 4.48526C7.55806 5.06347 7.87711 6.051 8.15743 7.42349C8.20699 7.67303 8.29372 8.09299 8.3123 8.16755C8.57404 9.22659 8.80635 9.74698 8.95503 9.99652C9.0619 10.1746 9.28182 10.3906 9.39488 10.3906H9.44134C9.55595 10.3906 9.77587 10.1746 9.88274 9.99652C10.0035 9.79415 10.194 9.3894 10.4124 8.60425L10.5177 8.22689H12.9028C13.1909 8.22689 13.4247 8.45666 13.4247 8.73968C13.4247 9.02269 13.1909 9.25246 12.9028 9.25246H11.3091C11.1419 9.78806 10.9669 10.2126 10.7841 10.5154C10.6943 10.666 10.208 11.4162 9.44444 11.4162H9.39643H9.39488Z" fill="white"/>
<path d="M20.4754 11.4163C20.4197 11.4163 20.3686 11.3996 20.3252 11.3646C20.2803 11.3311 20.2586 11.2794 20.2586 11.2109V3.51765H18.1163C18.0512 3.51765 18.0001 3.49635 17.9598 3.45527C17.9196 3.41418 17.8994 3.36701 17.8994 3.31376C17.8994 3.2605 17.9196 3.21333 17.9598 3.17225C18.0001 3.13117 18.0512 3.10986 18.1163 3.10986H22.8238C22.8966 3.10986 22.9508 3.12812 22.9864 3.16616C23.0221 3.2042 23.0406 3.24985 23.0406 3.30311C23.0406 3.35636 23.0251 3.40506 22.9926 3.4507C22.9601 3.49635 22.9043 3.51918 22.8238 3.51918H20.6923V11.2124C20.6923 11.2809 20.6706 11.3311 20.6257 11.3661C20.5808 11.3996 20.5312 11.4178 20.4754 11.4178V11.4163Z" fill="black" stroke="#06243A" stroke-width="0.4"/>
<path d="M24.7354 11.4849C24.3574 11.4849 24.0073 11.3891 23.682 11.1958C23.3567 11.0026 23.0965 10.7485 22.8998 10.435C22.7031 10.12 22.6055 9.78225 22.6055 9.41858V8.0324C22.6055 7.66874 22.7015 7.33246 22.8951 7.02053C23.0872 6.71012 23.3459 6.46058 23.6712 6.27038C23.9965 6.0817 24.3512 5.98584 24.7369 5.98584C25.1226 5.98584 25.4774 6.07866 25.8027 6.26429C26.128 6.44993 26.3882 6.69643 26.5849 7.00227C26.7816 7.30812 26.8792 7.652 26.8792 8.03088V9.41706C26.8792 9.77312 26.7816 10.1109 26.5849 10.4289C26.3882 10.7469 26.128 11.0026 25.8027 11.1958C25.4774 11.3891 25.1226 11.4849 24.7369 11.4849H24.7354ZM24.7354 11.0878C25.056 11.0878 25.3457 11.0087 25.6028 10.8489C25.86 10.6891 26.066 10.4822 26.2224 10.2235C26.3789 9.96636 26.4579 9.69704 26.4579 9.41706V8.03088C26.4579 7.7509 26.382 7.48614 26.2286 7.23508C26.0768 6.98554 25.8693 6.78012 25.609 6.62187C25.3488 6.4621 25.0576 6.38298 24.7369 6.38298C24.4163 6.38298 24.1266 6.4621 23.8695 6.62187C23.6123 6.78164 23.4079 6.98554 23.2561 7.23508C23.1043 7.48462 23.0268 7.7509 23.0268 8.03088V9.41706C23.0268 9.69704 23.1027 9.96636 23.2561 10.2235C23.4079 10.4807 23.6154 10.6891 23.8757 10.8489C24.1359 11.0087 24.424 11.0878 24.7369 11.0878H24.7354Z" fill="black" stroke="#06243A" stroke-width="0.4"/>
<path d="M28.5033 11.4165C28.4475 11.4165 28.3995 11.3952 28.3592 11.3541C28.319 11.313 28.2988 11.2658 28.2988 11.2126V6.24603C28.2988 6.18517 28.319 6.138 28.3592 6.10452C28.3995 6.07105 28.4475 6.05279 28.5033 6.05279C28.5668 6.05279 28.6195 6.06953 28.6598 6.10452C28.7 6.138 28.7202 6.18669 28.7202 6.24603V6.84859C28.8565 6.62948 29.0594 6.43015 29.3274 6.25212C29.5969 6.07409 29.9315 5.98584 30.3327 5.98584C30.7339 5.98584 31.0871 6.07866 31.417 6.26429C31.7454 6.44993 32.0088 6.69643 32.2055 7.00227C32.4022 7.30964 32.4998 7.652 32.4998 8.03088V11.2126C32.4998 11.281 32.4781 11.3312 32.4332 11.3662C32.3883 11.3997 32.3387 11.418 32.2829 11.418C32.2349 11.418 32.1884 11.4012 32.1451 11.3662C32.1001 11.3328 32.0785 11.281 32.0785 11.2126V8.03088C32.0785 7.7509 32.001 7.48614 31.843 7.23508C31.6866 6.98554 31.4805 6.78012 31.2234 6.62187C30.9663 6.4621 30.6812 6.38298 30.3683 6.38298C30.0957 6.38298 29.8324 6.44993 29.5799 6.58231C29.3274 6.71469 29.1198 6.90185 28.9603 7.1453C28.7992 7.38724 28.7202 7.68395 28.7202 8.0324V11.2141C28.7202 11.2673 28.7 11.3145 28.6598 11.3556C28.6195 11.3967 28.5668 11.418 28.5033 11.418V11.4165Z" fill="black" stroke="#06243A" stroke-width="0.4"/>
<path d="M36.3138 11.485C35.8398 11.485 35.4216 11.3983 35.056 11.2233C34.6904 11.0498 34.4039 10.8079 34.1947 10.502C33.9856 10.1947 33.8818 9.83404 33.8818 9.41712V7.99594C33.8818 7.63227 33.9794 7.29752 34.1762 6.99016C34.3729 6.68279 34.6331 6.43933 34.9584 6.25674C35.2837 6.07415 35.6384 5.98438 36.0241 5.98438C36.4099 5.98438 36.7522 6.07415 37.0775 6.25066C37.4028 6.42868 37.663 6.67062 37.8597 6.97798C38.0565 7.28535 38.1541 7.63532 38.1541 8.02941C38.1541 8.30178 38.106 8.49959 38.01 8.6198C37.914 8.74153 37.7916 8.81456 37.6429 8.84195C37.4942 8.86782 37.3315 8.88151 37.1549 8.88151H34.3016V9.4156C34.3016 9.93142 34.4937 10.3377 34.8794 10.6374C35.2651 10.9372 35.75 11.0863 36.3355 11.0863C36.6732 11.0863 36.9288 11.0468 37.1054 10.9676C37.282 10.8885 37.4167 10.8109 37.5081 10.7348C37.5995 10.6587 37.6832 10.6207 37.7544 10.6207C37.7947 10.6207 37.8303 10.6329 37.8628 10.6542C37.8954 10.677 37.9217 10.7029 37.9403 10.7333C37.9604 10.7637 37.9697 10.7942 37.9697 10.8246C37.9697 10.8931 37.9031 10.9798 37.7714 11.0863C37.6382 11.1928 37.4477 11.2857 37.1999 11.3648C36.9505 11.4439 36.6546 11.4835 36.3092 11.4835L36.3138 11.485ZM34.3032 8.48437H37.0124C37.3098 8.48437 37.5035 8.45851 37.5964 8.40525C37.6878 8.35199 37.7343 8.2394 37.7343 8.06441C37.7343 7.79204 37.6646 7.52576 37.5236 7.26861C37.3826 7.01146 37.1844 6.79843 36.9272 6.63258C36.6701 6.46672 36.3696 6.38304 36.0241 6.38304C35.7035 6.38304 35.4123 6.45912 35.152 6.60975C34.8918 6.76192 34.6842 6.9582 34.5324 7.20014C34.3806 7.44207 34.3032 7.70835 34.3032 7.99594V8.48437Z" fill="black" stroke="#06243A" stroke-width="0.4"/>
<path d="M39.9266 11.4163C39.8709 11.4163 39.8197 11.3996 39.7764 11.3646C39.7314 11.3311 39.7098 11.2794 39.7098 11.2109V3.51765H37.5674C37.5024 3.51765 37.4513 3.49635 37.411 3.45527C37.3707 3.41418 37.3506 3.36701 37.3506 3.31376C37.3506 3.2605 37.3707 3.21333 37.411 3.17225C37.4513 3.13117 37.5024 3.10986 37.5674 3.10986H42.275C42.3478 3.10986 42.402 3.12812 42.4376 3.16616C42.4732 3.2042 42.4918 3.24985 42.4918 3.30311C42.4918 3.35636 42.4763 3.40506 42.4438 3.4507C42.4113 3.49635 42.3555 3.51918 42.275 3.51918H40.1435V11.2124C40.1435 11.2809 40.1218 11.3311 40.0769 11.3661C40.032 11.3996 39.9824 11.4178 39.9266 11.4178V11.4163Z" fill="black" stroke="#06243A" stroke-width="0.4"/>
<path d="M43.3083 11.485C42.8436 11.485 42.447 11.3617 42.1217 11.1152C41.7964 10.8687 41.6338 10.4929 41.6338 9.98468C41.6338 9.58297 41.7515 9.27409 41.9885 9.05802C42.2255 8.84195 42.5539 8.69283 42.9752 8.60915C43.3966 8.52546 43.8845 8.48437 44.4375 8.48437H45.1114V8.16636C45.1114 7.87877 45.0587 7.5988 44.9549 7.32491C44.8511 7.05254 44.6823 6.82734 44.4499 6.64932C44.2176 6.47129 43.9078 6.38304 43.5236 6.38304C43.2742 6.38304 43.0666 6.40738 42.8978 6.45759C42.729 6.50629 42.5942 6.55802 42.495 6.61128C42.3944 6.66453 42.32 6.6904 42.272 6.6904C42.2069 6.6904 42.1558 6.66149 42.1155 6.60519C42.0753 6.54889 42.0551 6.50172 42.0551 6.46368C42.0551 6.3876 42.1295 6.31456 42.2782 6.24153C42.4269 6.17001 42.6159 6.10915 42.8436 6.05893C43.0728 6.01024 43.3067 5.98438 43.5484 5.98438C44.0456 5.98438 44.4391 6.08784 44.7287 6.2963C45.0184 6.50476 45.2244 6.77409 45.3484 7.10276C45.4723 7.43294 45.5342 7.78596 45.5342 8.16484V11.2111C45.5342 11.2643 45.5157 11.3115 45.48 11.3526C45.4444 11.3937 45.3933 11.415 45.3298 11.415C45.274 11.415 45.2229 11.3937 45.1795 11.3526C45.1346 11.3115 45.1129 11.2643 45.1129 11.2111V10.6207C44.9115 10.8413 44.6606 11.0392 44.3601 11.2172C44.0596 11.3952 43.7079 11.4835 43.3067 11.4835L43.3083 11.485ZM43.2959 11.0878C43.6011 11.0878 43.8923 11.0178 44.168 10.8779C44.4453 10.7379 44.6714 10.569 44.848 10.3727C45.0246 10.1764 45.1129 9.99837 45.1129 9.8386V8.88456H44.4515C44.0425 8.88456 43.6553 8.90738 43.2897 8.95303C42.9241 8.99868 42.6283 9.0991 42.399 9.25431C42.1698 9.40951 42.0567 9.65449 42.0567 9.98772C42.0567 10.3666 42.1775 10.6451 42.4176 10.8231C42.6577 11.0011 42.952 11.0894 43.2959 11.0894V11.0878Z" fill="black" stroke="#06243A" stroke-width="0.4"/>
<path d="M49.0244 14.1096C48.5582 14.1096 48.1523 14.0488 47.8022 13.927C47.4537 13.8053 47.1795 13.6349 46.9828 13.4158C46.7861 13.1967 46.6885 12.938 46.6885 12.6428C46.6885 12.2944 46.8031 12.0189 47.0324 11.8181C47.2616 11.6172 47.511 11.4712 47.7852 11.3799C47.5683 11.319 47.3917 11.2308 47.2554 11.1121C47.1191 10.9949 47.0509 10.8154 47.0509 10.5719C47.0509 10.3604 47.1052 10.1945 47.2136 10.0774C47.322 9.96021 47.4645 9.86283 47.6411 9.78675C47.4413 9.62089 47.2864 9.41395 47.178 9.16745C47.0695 8.92095 47.0153 8.6501 47.0153 8.35491V7.84365C47.0153 7.47999 47.0959 7.15741 47.2554 6.87743C47.4165 6.59746 47.6427 6.37682 47.9354 6.21858C48.2282 6.05881 48.5674 5.97968 48.9532 5.97968C49.2506 5.97968 49.5186 6.02685 49.7602 6.12119C50.0003 6.21553 50.2094 6.35096 50.386 6.52442C50.4991 6.32813 50.6385 6.16228 50.8073 6.0299C50.9762 5.89752 51.1357 5.83057 51.2891 5.83057C51.3774 5.83057 51.4409 5.85339 51.4812 5.89904C51.5214 5.94469 51.5416 5.99794 51.5416 6.05729C51.5416 6.12576 51.5199 6.17901 51.475 6.21705C51.4301 6.25509 51.3805 6.27335 51.3247 6.27335C51.2209 6.27335 51.1017 6.30683 50.97 6.3753C50.8383 6.44377 50.7144 6.58376 50.6029 6.79527C50.7067 6.93221 50.7841 7.09046 50.8321 7.27305C50.8801 7.45412 50.9049 7.64432 50.9049 7.84061V8.35187C50.9049 8.70793 50.8228 9.03051 50.6586 9.31809C50.4944 9.60567 50.2636 9.83087 49.9662 9.99368C49.6688 10.1565 49.328 10.2387 48.9423 10.2387C48.5566 10.2387 48.2437 10.1595 47.9556 9.99977C47.8348 10.053 47.7248 10.1185 47.6241 10.1991C47.5234 10.2782 47.4738 10.3939 47.4738 10.546C47.4738 10.7362 47.5668 10.8717 47.7511 10.9553C47.9354 11.039 48.1724 11.0953 48.4606 11.1258C48.7502 11.1562 49.0538 11.1866 49.376 11.2171C49.6967 11.2475 50.0019 11.3038 50.2915 11.3875C50.5812 11.4712 50.8166 11.6035 51.001 11.7846C51.1853 11.9657 51.2782 12.2274 51.2782 12.5682C51.2782 12.9091 51.1853 13.1708 51.001 13.3975C50.8166 13.6242 50.558 13.7992 50.2249 13.921C49.8919 14.0427 49.4922 14.1035 49.0275 14.1035L49.0244 14.1096ZM49.0244 13.746C49.6177 13.746 50.0716 13.6395 50.3845 13.428C50.6974 13.2164 50.8538 12.935 50.8538 12.5865C50.8538 12.3141 50.764 12.1072 50.5827 11.9672C50.4015 11.8272 50.1753 11.7283 49.9027 11.672C49.6301 11.6157 49.3544 11.5777 49.0786 11.5579C48.8014 11.5396 48.5674 11.5183 48.3738 11.4955C48.0532 11.5792 47.762 11.7055 47.5017 11.8759C47.2415 12.0463 47.1098 12.2913 47.1098 12.6093C47.1098 12.9273 47.2756 13.2149 47.6102 13.428C47.9432 13.6395 48.4141 13.746 49.0244 13.746ZM48.964 9.84761C49.438 9.84761 49.8082 9.7061 50.0778 9.42156C50.3473 9.13702 50.4805 8.78401 50.4805 8.35948V7.84822C50.4805 7.4313 50.3457 7.08285 50.0778 6.80287C49.8082 6.5229 49.4334 6.38291 48.9516 6.38291C48.4699 6.38291 48.0965 6.5229 47.8317 6.80287C47.5668 7.08285 47.4351 7.4313 47.4351 7.84822V8.34883C47.4351 8.77335 47.5699 9.12941 47.8379 9.41699C48.1074 9.70458 48.4823 9.84913 48.964 9.84913V9.84761Z" fill="black" stroke="#06243A" stroke-width="0.4"/>
</svg>
