<svg width="44" height="16" viewBox="0 0 44 16" fill="none" xmlns="http://www.w3.org/2000/svg">
<path d="M0.350182 13.3713H0.67709L0.373785 14.6515C0.328939 14.8408 0.3372 14.9849 0.399749 15.0802C0.462298 15.1754 0.577956 15.2231 0.74672 15.2231C0.915485 15.2231 1.05239 15.1754 1.15978 15.0802C1.26718 14.9849 1.34389 14.842 1.38873 14.6515L1.69204 13.3713H2.02367L1.7121 14.6836C1.64483 14.9682 1.52445 15.1826 1.35097 15.3231C1.17866 15.4648 0.952071 15.5351 0.672369 15.5351C0.392668 15.5351 0.2003 15.4648 0.0952645 15.3231C-0.00977099 15.1826 -0.0274736 14.9682 0.0397963 14.6824L0.351362 13.3701L0.350182 13.3713Z" fill="#6D6E72"/>
<path d="M1.9775 15.4794L2.49796 13.2871L3.48576 14.5756C3.51172 14.6113 3.53887 14.6506 3.56483 14.6923C3.5908 14.734 3.61794 14.7804 3.64508 14.8316L3.99206 13.3705H4.29772L3.77844 15.5604L2.7694 14.2481C2.74225 14.2124 2.71747 14.1755 2.69386 14.1362C2.67026 14.0969 2.64902 14.0552 2.62895 14.0123L2.2808 15.4783H1.97632L1.9775 15.4794Z" fill="#6D6E72"/>
<path d="M4.27197 15.4799L4.77237 13.3721H5.10282L4.60242 15.4799H4.27197Z" fill="#6D6E72"/>
<path d="M5.0791 15.4799L5.5795 13.3721H6.716L6.64755 13.6626H5.84149L5.7164 14.1878H6.52245L6.45164 14.4891H5.64558L5.41073 15.4799H5.08028H5.0791Z" fill="#6D6E72"/>
<path d="M6.58032 15.4799L7.08072 13.3721H7.41116L6.91077 15.4799H6.58032Z" fill="#6D6E72"/>
<path d="M7.38745 15.4799L7.88784 13.3721H9.02435L8.9559 13.6626H8.14984L8.02475 14.1914H8.8308L8.75999 14.4926H7.95393L7.79225 15.1738H8.59831L8.52514 15.481H7.38863L7.38745 15.4799Z" fill="#6D6E72"/>
<path d="M8.90295 15.4799L9.40335 13.3721H9.84945C10.1398 13.3721 10.3404 13.3876 10.4513 13.4173C10.5623 13.4471 10.6543 13.4983 10.7263 13.5697C10.8219 13.6626 10.8833 13.7829 10.9092 13.9282C10.9352 14.0747 10.9258 14.2402 10.8821 14.4283C10.8373 14.6153 10.7676 14.7808 10.6732 14.9261C10.5788 15.0702 10.4608 15.1893 10.3203 15.2834C10.2141 15.3548 10.1008 15.4048 9.98045 15.4358C9.86008 15.4656 9.67951 15.481 9.43875 15.481H8.90295V15.4799ZM9.30775 15.1702H9.58627C9.7397 15.1702 9.85653 15.1595 9.93797 15.1381C10.0194 15.1167 10.0937 15.0809 10.1634 15.0309C10.2566 14.963 10.3345 14.8785 10.3971 14.7773C10.4596 14.676 10.5068 14.5581 10.5387 14.4236C10.5705 14.289 10.5788 14.1711 10.5646 14.0699C10.5505 13.9687 10.5127 13.8841 10.4513 13.8151C10.4053 13.765 10.3451 13.7293 10.2696 13.7079C10.1941 13.6865 10.0713 13.6757 9.90138 13.6757H9.66181L9.30775 15.1679V15.1702Z" fill="#6D6E72"/>
<path d="M12.4068 14.5331L12.1826 15.4799H11.8722L12.3726 13.3721H12.873C13.0217 13.3721 13.1291 13.3804 13.1952 13.3971C13.2613 13.4137 13.3155 13.4411 13.358 13.4804C13.41 13.5293 13.4442 13.5959 13.4607 13.6781C13.4772 13.7615 13.4737 13.8532 13.4501 13.952C13.4265 14.052 13.3864 14.1437 13.3297 14.2283C13.2731 14.3128 13.2081 14.3795 13.1326 14.4272C13.0712 14.4653 13.004 14.4926 12.9308 14.5093C12.8565 14.526 12.7455 14.5343 12.598 14.5343H12.4068V14.5331ZM12.4941 14.2521H12.5791C12.7632 14.2521 12.8895 14.2319 12.9615 14.1902C13.0323 14.1485 13.0807 14.0759 13.1055 13.9711C13.1326 13.8591 13.1185 13.7793 13.0642 13.7341C13.0099 13.6876 12.8954 13.665 12.7196 13.665H12.6346L12.4953 14.2533L12.4941 14.2521Z" fill="#6D6E72"/>
<path d="M14.5784 15.4794L14.4758 14.9364H13.6685L13.3038 15.4794H12.9557L14.4616 13.2871L14.9266 15.4794H14.5772H14.5784ZM13.8597 14.6506H14.4274L14.333 14.1695C14.3282 14.1386 14.3247 14.104 14.3211 14.0635C14.3176 14.0242 14.3152 13.979 14.3141 13.9302C14.2916 13.9766 14.2704 14.0195 14.248 14.0588C14.2256 14.0981 14.2043 14.135 14.1831 14.1683L13.8609 14.6494L13.8597 14.6506Z" fill="#6D6E72"/>
<path d="M15.4018 15.4799L15.6308 14.5153L15.2166 13.3721H15.5647L15.822 14.0878C15.8279 14.1056 15.835 14.1306 15.8432 14.1604C15.8515 14.1902 15.8597 14.2223 15.8668 14.2569C15.8881 14.2235 15.9093 14.1914 15.9306 14.1616C15.9518 14.1318 15.973 14.1044 15.9955 14.0794L16.6009 13.3721H16.9325L15.9601 14.5153L15.7311 15.4799H15.403H15.4018Z" fill="#6D6E72"/>
<path d="M18.5601 14.4378C18.5601 14.4211 18.5648 14.3758 18.5743 14.302C18.5813 14.2401 18.5872 14.1901 18.5908 14.1496C18.5707 14.1972 18.5483 14.246 18.5212 14.2937C18.494 14.3413 18.4633 14.3901 18.4291 14.4402L17.6301 15.5631L17.3693 14.4163C17.3587 14.3687 17.3492 14.3234 17.3445 14.2794C17.3386 14.2353 17.3351 14.1913 17.3327 14.1484C17.3209 14.1925 17.3068 14.2389 17.2891 14.2877C17.2713 14.3365 17.2501 14.3866 17.2265 14.4402L16.7615 15.4786H16.457L17.4602 13.2815L17.7458 14.6116C17.7505 14.6331 17.7564 14.6676 17.7635 14.7164C17.7706 14.7653 17.7788 14.826 17.7894 14.8974C17.8237 14.8367 17.8721 14.7605 17.9358 14.6664C17.9523 14.6414 17.9653 14.6223 17.9747 14.6093L18.8776 13.2803L18.8492 15.4774H18.5412L18.5625 14.4366L18.5601 14.4378Z" fill="#6D6E72"/>
<path d="M19.11 15.4799L19.6104 13.3721H20.7469L20.6784 13.6626H19.8724L19.7473 14.1914H20.5533L20.4825 14.4926H19.6765L19.5148 15.1738H20.3208L20.2477 15.481H19.1112L19.11 15.4799Z" fill="#6D6E72"/>
<path d="M20.6267 15.4794L21.1471 13.2871L22.1349 14.5756C22.1609 14.6113 22.188 14.6506 22.214 14.6923C22.24 14.734 22.2671 14.7804 22.2943 14.8316L22.6412 13.3705H22.9469L22.4276 15.5604L21.4186 14.2481C21.3914 14.2124 21.3666 14.1755 21.343 14.1362C21.3194 14.0969 21.2982 14.0552 21.2781 14.0123L20.93 15.4783H20.6255L20.6267 15.4794Z" fill="#6D6E72"/>
<path d="M24.0045 13.6626L23.5737 15.4799H23.2433L23.6741 13.6626H23.1335L23.202 13.3721H24.6123L24.5439 13.6626H24.0057H24.0045Z" fill="#6D6E72"/>
<path d="M24.348 15.0569L24.6419 14.9307C24.6442 15.0247 24.6737 15.0962 24.728 15.1462C24.7835 15.1962 24.8625 15.22 24.9664 15.22C25.0644 15.22 25.1493 15.1915 25.2213 15.1355C25.2921 15.0795 25.3393 15.0033 25.3618 14.908C25.3913 14.7842 25.3181 14.6734 25.1422 14.577C25.1175 14.5627 25.0986 14.552 25.0856 14.5448C24.8885 14.4317 24.7622 14.3293 24.7103 14.2376C24.6572 14.1459 24.6466 14.034 24.6784 13.9018C24.7197 13.7303 24.8083 13.591 24.9463 13.4838C25.0844 13.3766 25.2449 13.3242 25.4278 13.3242C25.5777 13.3242 25.6969 13.354 25.7831 13.4147C25.8704 13.4743 25.92 13.5612 25.9318 13.6731L25.6403 13.8113C25.6155 13.7446 25.5813 13.697 25.54 13.666C25.4987 13.635 25.4467 13.6195 25.383 13.6195C25.2945 13.6195 25.2178 13.6434 25.154 13.691C25.0903 13.7386 25.049 13.8029 25.0301 13.8839C25.0006 14.0113 25.0868 14.1292 25.2909 14.2388C25.3063 14.2471 25.3193 14.2543 25.3275 14.259C25.5057 14.3543 25.6226 14.4484 25.6757 14.5401C25.7288 14.6318 25.7394 14.7461 25.7075 14.883C25.6603 15.0831 25.5624 15.2415 25.4125 15.3594C25.2626 15.4773 25.0844 15.5356 24.8779 15.5356C24.7044 15.5356 24.5722 15.4939 24.4813 15.4118C24.3905 15.3296 24.3456 15.2117 24.348 15.0581V15.0569Z" fill="#6D6E72"/>
<path d="M26.7947 15.4799L27.2951 13.3721H27.6255L27.1251 15.4799H26.7947Z" fill="#6D6E72"/>
<path d="M27.6003 15.4794L28.1208 13.2871L29.1086 14.5756C29.1345 14.6113 29.1617 14.6506 29.1876 14.6923C29.2136 14.734 29.2407 14.7804 29.2679 14.8316L29.6149 13.3705H29.9205L29.4012 15.5604L28.3922 14.2481C28.3651 14.2124 28.3403 14.1755 28.3167 14.1362C28.2931 14.0969 28.2718 14.0552 28.2518 14.0123L27.9036 15.4783H27.5991L27.6003 15.4794Z" fill="#6D6E72"/>
<path d="M30.9781 13.6626L30.5474 15.4799H30.2169L30.6477 13.6626H30.1072L30.1756 13.3721H31.5859L31.5175 13.6626H30.9793H30.9781Z" fill="#6D6E72"/>
<path d="M31.339 15.4799L31.8394 13.3721H32.9759L32.9074 13.6626H32.1014L31.9763 14.1914H32.7823L32.7115 14.4926H31.9055L31.7438 15.1738H32.5498L32.4767 15.481H31.3402L31.339 15.4799Z" fill="#6D6E72"/>
<path d="M33.3891 14.5367L33.1649 15.4799H32.8545L33.3549 13.3721H33.8163C33.9521 13.3721 34.0547 13.3816 34.1244 13.3995C34.1952 13.4173 34.2518 13.4483 34.2943 13.49C34.3451 13.5412 34.3781 13.6067 34.3934 13.6876C34.4088 13.7686 34.4052 13.8567 34.3816 13.952C34.3415 14.1211 34.2707 14.2533 34.1692 14.3486C34.0677 14.4438 33.9379 14.501 33.7797 14.52L34.253 15.4787H33.8789L33.4257 14.5355H33.3879L33.3891 14.5367ZM33.4729 14.27H33.5331C33.7078 14.27 33.8293 14.2485 33.8978 14.2068C33.965 14.1652 34.0122 14.0901 34.037 13.9818C34.0642 13.8663 34.0535 13.7841 34.0028 13.7365C33.9521 13.6888 33.8435 13.665 33.6771 13.665H33.6169L33.4729 14.27Z" fill="#6D6E72"/>
<path d="M34.4514 15.4799L34.9518 13.3721H36.0883L36.0199 13.6626H35.2138L35.0887 14.1878H35.8948L35.824 14.4891H35.0179L34.783 15.4799H34.4526H34.4514Z" fill="#6D6E72"/>
<path d="M37.1902 15.4794L37.0876 14.9364H36.2803L35.9157 15.4794H35.5675L37.0734 13.2871L37.5384 15.4794H37.1891H37.1902ZM36.4715 14.6506H37.0392L36.9448 14.1695C36.94 14.1386 36.9365 14.104 36.9318 14.0635C36.9282 14.0242 36.9259 13.979 36.9247 13.9302C36.9023 13.9766 36.881 14.0195 36.8586 14.0588C36.8362 14.0981 36.8149 14.135 36.7937 14.1683L36.4715 14.6494V14.6506Z" fill="#6D6E72"/>
<path d="M39.6952 13.8836C39.6208 13.8014 39.537 13.7395 39.4426 13.6978C39.3482 13.6561 39.2432 13.6359 39.1287 13.6359C38.9056 13.6359 38.7074 13.7097 38.5327 13.8574C38.358 14.005 38.2424 14.1968 38.1869 14.4326C38.1326 14.66 38.1562 14.8482 38.2577 14.9958C38.358 15.1435 38.5126 15.2173 38.7192 15.2173C38.8395 15.2173 38.9599 15.1947 39.0791 15.1506C39.1983 15.1066 39.3187 15.0399 39.4403 14.9506L39.3482 15.3376C39.2432 15.4043 39.1346 15.4531 39.0225 15.4864C38.9104 15.5186 38.7923 15.5353 38.6696 15.5353C38.5138 15.5353 38.3757 15.5091 38.2565 15.4555C38.1373 15.4031 38.0394 15.3257 37.9639 15.2221C37.8883 15.1209 37.8399 15.003 37.8199 14.866C37.7986 14.7291 37.8069 14.5838 37.8435 14.429C37.8801 14.2742 37.9414 14.1289 38.0264 13.9931C38.1114 13.8574 38.2176 13.7383 38.3427 13.6359C38.469 13.5323 38.6035 13.4537 38.7463 13.4001C38.8891 13.3465 39.0378 13.3203 39.1901 13.3203C39.3093 13.3203 39.419 13.3382 39.5193 13.3739C39.6196 13.4096 39.7117 13.4644 39.7967 13.537L39.6964 13.8824L39.6952 13.8836Z" fill="#6D6E72"/>
<path d="M39.7263 15.4799L40.2267 13.3721H41.3632L41.2948 13.6626H40.4887L40.3636 14.1914H41.1697L41.0989 14.4926H40.2928L40.1311 15.1738H40.9372L40.864 15.481H39.7275L39.7263 15.4799Z" fill="#6D6E72"/>
<path d="M33.6885 11.5345H31.4131L34.5783 0H36.8537L33.6885 11.5345Z" fill="#6D6E72"/>
<path d="M32.507 0.364042C32.3489 0.144928 32.1058 0.0341797 31.7753 0.0341797H19.2608L18.6412 2.2932H20.9177L30.0251 2.29201L29.3631 4.70584H20.2557V4.70108H17.9803L16.0908 11.5829H18.3686L19.6361 6.96367H29.8741C30.1939 6.96367 30.4948 6.85412 30.7781 6.63381C31.0601 6.41351 31.2466 6.14199 31.3351 5.8169L32.6026 1.19763C32.6947 0.861813 32.6628 0.584347 32.507 0.364042Z" fill="#6D6E72"/>
<path d="M14.7657 10.8139C14.6395 11.27 14.2276 11.5867 13.7579 11.5867H2.01632C1.69649 11.5867 1.4581 11.4772 1.30232 11.2569C1.14653 11.0366 1.11231 10.765 1.202 10.4399L4.06746 0.0332031H6.3452L3.78658 9.32771H12.8987L15.4561 0.0332031H17.7339L14.7657 10.8139Z" fill="#6D6E72"/>
<path d="M40.7849 0.0214844L43.6657 5.80301L37.609 11.5833L40.7849 0.0214844Z" fill="#0F8041"/>
<path d="M38.7639 0.0214844L41.6436 5.80301L35.5834 11.5833L38.7639 0.0214844Z" fill="#E97726"/>
</svg>
